<svg baseProfile="full" height="100%" version="1.1" width="100%" xmlns="http://www.w3.org/2000/svg" xmlns:ev="http://www.w3.org/2001/xml-events" xmlns:xlink="http://www.w3.org/1999/xlink"><defs><marker fill="black" id="id5" markerHeight="10" markerUnits="strokeWidth" markerWidth="8" orient="auto" overflow="visible" refX="0" refY="5" stroke="none" viewBox="0 0 10 5"><path d="M 0 0 L 10 5 L 0 10 z" /></marker><marker fill="black" id="id6" markerHeight="10" markerUnits="strokeWidth" markerWidth="8" orient="auto" overflow="visible" refX="0" refY="5" stroke="none" viewBox="0 0 10 5"><path d="M 0 0 L 10 5 L 0 10 z" /></marker><marker fill="black" id="id7" markerHeight="10" markerUnits="strokeWidth" markerWidth="8" orient="auto" overflow="visible" refX="0" refY="5" stroke="none" viewBox="0 0 10 5"><path d="M 0 0 L 10 5 L 0 10 z" /></marker><marker fill="black" id="id8" markerHeight="10" markerUnits="strokeWidth" markerWidth="8" orient="auto" overflow="visible" refX="0" refY="5" stroke="none" viewBox="0 0 10 5"><path d="M 0 0 L 10 5 L 0 10 z" /></marker></defs><rect fill="#EBD9B2" height="30" stroke="#000000" width="107.25" x="196.5" y="163" /><rect fill="#ffffff" height="20" stroke="rgb(0,0,0)" width="107.25" x="196.5" y="193" /><rect fill="#EBD9B2" height="30" stroke="#000000" width="107.25" x="199.5" y="303" /><rect fill="#ffffff" height="20" stroke="rgb(0,0,0)" width="107.25" x="199.5" y="333" /><rect fill="#EBD9B2" height="30" stroke="#000000" width="107.25" x="190" y="465" /><rect fill="#ffffff" height="20" stroke="rgb(0,0,0)" width="107.25" x="190" y="495" /><rect fill="#EBD9B2" height="30" stroke="#000000" width="93.5" x="514.5" y="243" /><rect fill="#ffffff" height="65" stroke="rgb(0,0,0)" width="93.5" x="514.5" y="273" /><rect fill="#EBD9B2" height="30" stroke="#000000" width="110.0" x="802.5" y="269" /><rect fill="#ffffff" height="80" stroke="rgb(0,0,0)" width="110.0" x="802.5" y="299" /><line marker-end="url(#id5)" stroke="#000000" x1="311.75" x2="509.5" y1="343" y2="303" /><line marker-end="url(#id6)" stroke="#000000" x1="308.75" x2="509.5" y1="203" y2="288" /><line marker-end="url(#id7)" stroke="#000000" x1="302.25" x2="797.5" y1="505" y2="329" /><line marker-end="url(#id8)" stroke="#000000" x1="613.0" x2="797.5" y1="328" y2="314" /><g style="font-family: Helvetica, Arial, FreeSans, Sans, sans, sans-serif;"><text style="font-size:14px" x="201.5" y="183">Input dataset</text><text style="font-size:10px" x="201.5" y="208">output</text><text style="font-size:14px" x="204.5" y="323">Input dataset</text><text style="font-size:10px" x="204.5" y="348">output</text><text style="font-size:14px" x="195" y="485">Input dataset</text><text style="font-size:10px" x="195" y="510">output</text><text style="font-size:14px" x="519.5" y="263">HISAT2</text><text style="font-size:10px" x="519.5" y="288">Forward reads</text><text style="font-size:10px" x="519.5" y="303">Reverse reads</text><text style="font-size:10px" x="519.5" y="333">output_alignments</text><text style="font-size:14px" x="807.5" y="289">featureCounts</text><text style="font-size:10px" x="807.5" y="314">Alignment file</text><text style="font-size:10px" x="807.5" y="329">Gene annotation file</text><text style="font-size:10px" x="807.5" y="359">output</text><text style="font-size:10px" x="807.5" y="374">output_summary</text><line stroke="rgb(0,0,0)" x1="514.5" x2="608.0" y1="313" y2="313" /><circle cx="306.75" cy="343" fill="#ffffff" r="5" stroke="#000000" /><circle cx="303.75" cy="203" fill="#ffffff" r="5" stroke="#000000" /><line stroke="rgb(0,0,0)" x1="802.5" x2="912.5" y1="339" y2="339" /><circle cx="297.25" cy="505" fill="#ffffff" r="5" stroke="#000000" /><circle cx="608.0" cy="328" fill="#ffffff" r="5" stroke="#000000" /></g></svg>